<?xml version="1.0" standalone="no"?>
<!DOCTYPE svg PUBLIC "-//W3C//DTD SVG 20010904//EN"
 "http://www.w3.org/TR/2001/REC-SVG-20010904/DTD/svg10.dtd">
<svg version="1.0" xmlns="http://www.w3.org/2000/svg"
 width="1300.000000pt" height="975.000000pt" viewBox="0 0 1300.000000 975.000000"
 preserveAspectRatio="xMidYMid meet">
<metadata>
Created by potrace 1.13, written by Peter Selinger 2001-2015
</metadata>
<g transform="translate(0.000000,975.000000) scale(0.100000,-0.100000)"
fill="#000000" stroke="none">
<path d="M7575 8336 c-35 -15 -115 -107 -115 -131 0 -9 -4 -14 -9 -11 -5 3
-12 -1 -15 -10 -3 -8 -10 -13 -15 -10 -5 3 -16 -6 -26 -20 -9 -14 -37 -45 -61
-68 -49 -47 -54 -62 -23 -71 26 -9 27 -7 33 39 3 21 8 41 12 45 4 3 4 -2 1
-11 -8 -21 1 -22 26 -4 10 8 16 20 15 27 -2 10 6 13 25 11 19 -2 27 2 27 13 0
12 6 15 20 10 11 -4 20 -2 20 4 0 6 -5 11 -11 11 -5 0 -8 4 -5 9 4 5 17 4 32
-2 22 -11 25 -17 22 -54 -2 -24 -1 -43 2 -43 4 0 16 31 27 68 12 38 34 95 48
126 24 53 27 87 8 86 -4 -1 -21 -7 -38 -14z"/>
<path d="M5795 7991 c-3 -11 -16 -26 -29 -34 -31 -21 -65 -148 -80 -301 -4
-48 10 -54 19 -7 5 29 32 71 45 71 6 0 10 7 10 15 0 8 11 22 25 31 17 11 24
22 20 35 -3 10 2 27 11 37 18 22 44 19 44 -4 0 -8 9 -14 20 -14 26 0 26 29 0
81 -12 22 -18 44 -15 50 10 15 -23 59 -45 59 -10 0 -21 -9 -25 -19z"/>
<path d="M9057 7823 c-20 -14 -51 -47 -67 -73 -17 -26 -39 -55 -50 -65 -16
-14 -17 -20 -8 -26 16 -10 -1 -43 -23 -45 -28 -2 -30 -4 -20 -23 8 -14 5 -24
-12 -42 -12 -13 -23 -27 -23 -31 -1 -5 -2 -11 -3 -15 0 -4 -8 2 -16 13 -8 10
-15 16 -16 12 -1 -5 -2 -11 -3 -15 -1 -5 -5 -14 -9 -20 -5 -8 -3 -13 6 -13 10
0 13 -7 10 -20 -4 -16 -8 -18 -19 -9 -12 9 -14 3 -14 -38 0 -28 -7 -64 -16
-81 -11 -23 -12 -36 -5 -51 20 -37 12 -66 -29 -106 -22 -21 -40 -48 -40 -58 0
-10 -9 -32 -20 -48 -17 -23 -19 -33 -10 -49 6 -11 14 -20 18 -20 12 0 62 69
62 85 0 15 -18 2 -23 -16 -3 -12 -10 -18 -17 -14 -8 5 -7 12 3 23 8 10 17 25
20 34 5 14 13 16 36 12 23 -5 32 -2 37 10 8 20 34 21 34 2 0 -8 -7 -21 -15
-30 -8 -8 -15 -19 -15 -25 0 -15 17 -14 23 2 3 7 6 8 6 1 1 -15 -40 -67 -47
-60 -8 9 -42 -25 -42 -41 0 -7 5 -13 10 -13 5 0 9 5 7 12 -1 6 7 14 18 16 11
2 26 13 33 23 7 11 19 19 25 19 8 0 8 -3 -1 -9 -9 -5 -11 -17 -6 -36 5 -18 3
-26 -3 -22 -6 4 -13 0 -17 -8 -3 -8 -1 -15 4 -15 12 0 1 -30 -18 -50 -13 -12
-14 -11 -8 7 10 32 -24 40 -46 11 -20 -26 -23 -44 -8 -53 12 -7 2 -55 -14 -70
-6 -6 -28 -9 -48 -8 -43 4 -42 4 -26 -32 8 -18 19 -25 40 -25 16 0 28 -5 28
-13 0 -9 16 -13 53 -12 l52 0 -2 -52 c-2 -51 11 -72 20 -35 3 9 6 -2 7 -25 2
-24 3 -49 4 -55 1 -7 -4 -12 -11 -11 -8 2 -10 -8 -6 -32 4 -24 1 -41 -9 -53
-21 -24 -29 -50 -18 -57 6 -4 7 -17 4 -29 -3 -15 1 -29 11 -40 22 -22 15 -52
-12 -49 -24 3 -30 -14 -25 -64 2 -18 8 -30 13 -27 5 3 9 -2 9 -10 0 -8 -4 -18
-10 -21 -5 -3 -10 -15 -10 -26 0 -11 4 -18 9 -15 10 6 21 -83 13 -98 -5 -10
-12 -76 -15 -161 -2 -27 -7 -61 -13 -75 -5 -14 -9 -56 -8 -95 1 -38 -2 -90 -7
-114 -8 -34 -6 -49 6 -68 9 -13 15 -34 13 -45 -4 -27 -28 -36 -28 -11 0 15 -2
15 -9 3 -6 -8 -7 -18 -5 -22 3 -4 0 -8 -6 -8 -6 0 -13 7 -16 15 -4 8 -12 15
-19 15 -12 0 10 -28 88 -113 23 -25 30 -28 37 -16 21 32 81 236 95 322 9 51
23 128 31 172 7 44 16 121 19 170 3 50 8 97 10 105 4 15 35 350 56 615 15 190
55 565 90 840 17 132 28 254 24 271 -9 51 -42 57 -98 17z"/>
<path d="M7061 7595 c-45 -65 -86 -99 -102 -89 -7 4 -9 3 -6 -3 4 -6 -2 -13
-13 -16 -17 -4 -19 -9 -11 -31 8 -20 7 -24 -4 -19 -9 3 -15 -1 -15 -8 0 -7 -7
-20 -16 -30 -15 -16 -14 -19 4 -39 20 -22 20 -41 -2 -69 -13 -17 -17 -42 -8
-55 11 -18 13 -48 3 -41 -6 3 -14 -2 -19 -12 -7 -12 -2 -30 19 -68 16 -29 29
-60 29 -71 1 -18 1 -18 14 -2 7 10 17 14 21 10 4 -4 5 4 2 16 -5 21 -3 23 18
18 13 -3 27 -2 30 4 10 16 75 12 81 -5 4 -8 12 -15 19 -15 24 0 22 -25 -2 -41
l-25 -16 31 -5 c21 -3 31 0 31 9 0 7 5 13 10 13 6 0 10 -7 10 -16 0 -13 3 -14
14 -4 8 6 12 18 9 26 -6 16 43 64 65 64 10 0 9 4 -2 16 -9 8 -16 27 -16 41 0
18 -4 24 -15 19 -17 -6 -19 2 -6 23 6 10 10 10 16 1 6 -9 9 -9 16 1 4 7 4 18
-1 24 -8 10 -10 28 -11 105 0 42 -17 110 -27 110 -4 0 -8 12 -8 26 -1 14 -5
28 -9 32 -9 10 -158 -145 -150 -157 3 -6 0 -9 -7 -6 -15 6 -60 -36 -57 -51 4
-25 -2 -35 -20 -29 -32 10 -33 -12 -4 -41 16 -15 21 -22 12 -15 -9 6 -21 11
-25 10 -20 -3 -31 2 -31 16 0 8 5 12 11 9 6 -3 2 2 -8 10 -15 12 -16 16 -5 16
9 0 10 3 3 8 -8 5 -5 13 7 26 11 11 19 14 19 8 0 -6 -5 -14 -10 -17 -6 -4 -8
-11 -4 -16 8 -13 33 20 34 44 0 10 4 16 9 13 5 -4 12 0 14 6 4 10 6 9 6 -1 1
-19 201 179 201 199 0 28 -49 120 -64 120 -8 0 -33 -25 -55 -55z"/>
<path d="M3669 7498 c-3 -27 5 -46 67 -176 136 -281 207 -420 261 -504 12 -21
23 -41 23 -46 0 -4 8 -14 18 -23 33 -29 97 -111 94 -121 -1 -5 2 -7 8 -3 5 3
10 1 10 -4 0 -6 4 -11 9 -11 12 0 31 56 31 91 0 35 -31 139 -42 139 -4 0 -10
17 -13 38 -4 20 -9 44 -11 52 -3 8 -5 17 -6 20 0 3 -9 18 -20 33 -11 15 -21
34 -22 42 -1 8 -5 18 -9 21 -4 4 -7 16 -7 26 0 11 -7 18 -18 18 -13 0 -24 13
-35 40 -10 25 -25 43 -41 50 -31 11 -35 25 -6 17 24 -6 24 -6 0 68 -15 44 -34
73 -73 112 -28 29 -58 53 -65 53 -7 0 -15 7 -18 15 -4 8 -11 15 -18 15 -6 0
-22 12 -35 25 -25 27 -80 35 -82 13z"/>
<path d="M4283 7280 c-13 -5 -20 -15 -18 -22 6 -14 195 -108 218 -108 7 0 19
-6 26 -12 11 -11 12 -8 7 12 -3 14 -3 19 0 13 3 -7 14 -13 23 -13 19 0 21 23
6 70 -5 15 -4 20 4 16 6 -4 11 0 11 8 0 17 -10 20 -123 35 -92 13 -124 13
-154 1z"/>
<path d="M5154 6546 c-8 -14 -22 -51 -31 -83 -8 -32 -19 -63 -23 -68 -28 -34
-55 -367 -38 -468 6 -33 22 -36 26 -5 2 13 8 27 13 32 5 6 9 27 9 47 0 21 5
41 10 44 6 3 10 -2 10 -13 0 -10 16 -35 35 -55 27 -28 35 -44 35 -72 0 -25 4
-35 12 -33 7 3 13 13 13 23 0 10 6 20 14 23 9 3 11 0 7 -7 -11 -17 31 -101 50
-101 18 0 53 -73 55 -115 0 -16 3 -24 6 -17 2 6 11 12 19 12 18 0 18 34 -1 71
-9 16 -13 35 -8 41 4 7 10 28 13 48 5 32 8 35 38 32 18 -1 32 2 32 8 0 13 37
13 45 0 10 -15 38 -12 32 4 -6 15 11 36 28 36 5 0 2 -5 -8 -11 -17 -10 -15
-29 4 -29 6 0 7 5 4 10 -3 6 -1 10 5 10 6 0 65 54 132 120 95 95 118 123 109
133 -6 8 -8 17 -5 20 9 9 -35 67 -51 67 -16 0 -28 27 -14 35 5 4 7 11 3 16 -4
7 -12 5 -22 -4 -30 -25 -52 -27 -72 -7 -11 11 -20 27 -20 35 0 8 -7 15 -15 15
-29 0 -62 22 -72 51 -6 16 -18 29 -27 29 -20 0 -58 21 -69 38 -4 6 -14 12 -22
12 -8 0 -22 8 -32 18 -21 22 -125 62 -158 62 -13 0 -27 5 -30 10 -10 16 -24
12 -41 -14z"/>
<path d="M10080 6384 c-30 -25 -78 -63 -106 -84 -28 -21 -57 -45 -65 -52 -27
-26 -76 -57 -82 -52 -7 7 -67 -27 -67 -38 0 -5 -16 -31 -36 -59 -33 -47 -35
-53 -23 -80 11 -27 13 -28 29 -14 26 23 30 18 15 -22 -8 -21 -17 -64 -20 -95
-4 -32 -11 -58 -16 -58 -5 0 -9 -4 -9 -10 0 -22 29 -8 49 23 l21 32 -3 -50
c-2 -27 -12 -68 -22 -90 -11 -22 -22 -48 -26 -57 -11 -23 105 66 150 116 20
22 55 60 79 85 43 46 114 148 145 206 22 44 44 138 52 225 3 41 9 85 12 98 8
34 -15 27 -77 -24z"/>
<path d="M5687 6010 c-76 -77 -142 -138 -145 -136 -4 2 -16 0 -27 -5 -18 -7
-18 -8 -1 -8 10 -1 16 -6 13 -14 -3 -8 5 -14 21 -15 24 -2 25 -1 7 11 -11 9
-14 16 -8 20 6 4 16 0 23 -8 7 -8 16 -12 21 -9 5 3 9 2 8 -3 -3 -19 3 -33 27
-62 16 -19 21 -31 13 -31 -8 0 -3 -7 9 -16 15 -10 21 -22 17 -32 -3 -9 -3 -13
1 -9 11 10 35 -44 29 -64 -3 -9 -2 -20 3 -23 6 -3 13 -21 16 -40 7 -34 49 -90
60 -79 13 14 4 71 -19 118 -14 28 -21 51 -16 53 5 2 7 11 4 21 -3 10 0 22 6
25 6 4 11 3 11 -3 0 -16 42 -25 50 -10 11 17 1 39 -19 39 -10 0 -21 14 -28 37
-14 47 -9 53 19 23 14 -15 23 -19 26 -11 2 7 -5 23 -17 35 -24 26 -28 45 -5
25 14 -11 15 -6 10 50 -6 71 9 76 20 6 3 -25 10 -45 15 -45 4 0 5 16 2 35 -4
27 -2 36 13 42 10 4 19 2 22 -5 2 -7 10 -12 17 -12 24 0 35 -36 34 -107 l-1
-68 -10 46 c-10 49 -42 79 -61 60 -8 -8 -7 -11 4 -11 14 0 39 -62 39 -96 0
-11 6 -15 18 -12 10 3 23 -1 30 -9 7 -7 21 -13 31 -13 12 0 21 -10 25 -25 6
-24 26 -36 26 -15 0 6 -6 10 -12 10 -10 0 -9 3 1 9 9 6 10 11 2 15 -16 10 -14
26 4 26 8 0 15 5 15 10 0 6 -6 10 -14 10 -20 0 -49 60 -36 75 5 6 6 15 2 19
-4 4 -2 7 3 6 6 -1 22 -2 38 -1 34 1 36 21 2 21 -15 0 -25 6 -26 15 -1 8 -2
21 -3 28 -2 6 1 19 5 27 5 10 -1 18 -22 27 -16 7 -29 19 -29 28 0 8 -7 15 -15
15 -8 0 -15 9 -15 20 0 15 -7 20 -26 20 -23 0 -25 3 -20 25 5 21 2 27 -18 35
-18 6 -24 15 -21 30 2 11 1 20 -3 20 -4 0 -69 -63 -145 -140z"/>
<path d="M2700 5959 c0 -7 -36 -9 -107 -8 -75 2 -108 -1 -111 -9 -2 -7 -16
-12 -31 -12 -33 0 -193 -46 -236 -67 -57 -29 -99 -83 -63 -83 6 0 39 -11 72
-24 89 -35 173 -51 191 -36 8 7 12 16 9 21 -3 5 -1 9 5 9 5 0 14 -6 18 -14 13
-22 47 -28 69 -11 17 13 17 14 2 15 -10 0 -18 4 -18 9 0 5 -12 8 -27 5 -23 -4
-25 -3 -13 12 8 9 24 20 37 25 13 5 23 15 23 23 0 7 7 16 15 20 8 3 15 14 15
25 0 14 -5 18 -20 14 -12 -3 -20 0 -20 7 0 14 52 10 62 -5 5 -6 12 -5 20 3 18
18 38 15 38 -7 0 -10 7 -22 16 -25 27 -10 74 -7 74 6 0 6 2 9 6 6 3 -3 21 -2
40 2 18 4 34 5 34 1 0 -4 11 -13 24 -19 21 -9 25 -8 25 6 3 48 6 62 16 59 5
-3 9 -16 8 -31 -2 -23 2 -27 20 -24 17 2 23 11 25 39 3 32 0 37 -23 41 -14 3
-28 1 -31 -4 -3 -5 -12 -4 -20 3 -9 7 -30 9 -55 6 -48 -6 -69 -1 -69 19 0 8
-4 14 -10 14 -5 0 -10 -5 -10 -11z"/>
<path d="M10015 5920 c-20 -29 -201 -211 -287 -288 -26 -23 -47 -45 -47 -48 0
-3 -3 -9 -7 -12 -4 -4 -4 -1 0 6 24 41 -63 -30 -95 -77 -8 -13 -26 -25 -40
-27 -13 -1 -27 -3 -31 -3 -5 -1 -8 -8 -8 -16 0 -8 -4 -15 -9 -15 -19 0 -101
-61 -134 -100 -19 -22 -42 -40 -51 -40 -10 0 -20 -9 -23 -20 -3 -11 -9 -20
-13 -20 -5 0 -25 -16 -46 -35 -20 -19 -41 -35 -45 -35 -5 0 -9 -3 -9 -8 0 -4
-36 -45 -80 -91 -44 -47 -80 -88 -80 -92 0 -15 22 -21 33 -9 9 10 9 11 0 6
-18 -10 -16 9 2 24 8 6 19 9 25 5 6 -4 22 1 35 9 52 34 20 -21 -61 -106 -35
-36 -64 -72 -64 -79 0 -7 8 -4 20 9 12 12 25 22 30 22 6 0 10 7 10 15 0 8 7
15 16 15 13 0 12 -4 -5 -27 -11 -16 -39 -49 -63 -74 -41 -44 -73 -89 -64 -89
3 0 22 16 43 35 21 19 41 35 46 35 13 0 8 -19 -10 -38 -21 -22 -103 -118 -119
-140 -6 -9 -10 -23 -9 -31 1 -9 0 -10 -2 -3 -7 19 -16 14 -50 -27 -32 -39 -33
-40 -10 -43 31 -5 54 11 156 113 50 49 95 89 100 89 5 0 11 3 14 8 2 4 2 1 0
-7 -4 -16 -37 -59 -82 -109 -37 -40 -31 -51 15 -27 26 13 29 13 32 -1 2 -9 -2
-20 -10 -25 -8 -5 -9 -9 -2 -9 7 0 40 30 75 66 62 64 96 74 45 13 -24 -28 -30
-42 -27 -61 0 -5 -4 -7 -11 -5 -14 3 -60 -63 -54 -79 6 -17 -13 -33 -33 -27
-13 4 -13 3 -2 -5 8 -6 10 -15 5 -23 -8 -14 -3 -11 49 31 56 45 197 190 197
202 0 8 12 25 28 39 l27 24 -24 -27 c-14 -16 -22 -31 -18 -34 3 -3 18 14 34
37 15 24 35 50 43 59 108 110 363 521 457 735 12 28 51 116 87 196 36 80 66
151 66 157 0 6 14 32 32 57 17 24 30 47 27 49 -3 3 -13 -8 -24 -24z"/>
<path d="M2125 5760 c-8 -13 14 -44 61 -84 109 -91 638 -466 659 -466 3 0 30
-18 60 -40 30 -22 59 -40 65 -40 5 0 10 -4 10 -10 0 -5 21 -24 48 -41 26 -18
68 -50 93 -71 25 -21 49 -38 55 -38 5 -1 27 -19 49 -40 44 -45 52 -47 71 -22
12 16 14 16 26 0 7 -9 26 -22 41 -28 16 -5 26 -14 23 -19 -5 -8 36 -53 148
-160 40 -38 56 -48 56 -36 0 14 3 15 15 5 19 -16 30 -7 21 16 -4 11 -14 15
-30 12 -18 -4 -26 0 -30 16 -3 11 -1 25 5 32 7 9 6 15 -3 21 -12 7 -44 42
-105 116 -26 31 -32 57 -9 38 10 -8 16 -9 21 -1 11 17 26 0 20 -22 -5 -14 -1
-21 14 -25 12 -3 21 -10 21 -15 0 -5 8 -8 17 -6 10 2 19 -5 21 -16 2 -11 0
-16 -7 -12 -6 4 -11 2 -11 -4 0 -7 6 -10 13 -7 21 7 44 -11 73 -58 17 -26 37
-45 47 -45 10 0 15 5 12 10 -3 6 -14 10 -23 10 -12 0 -13 3 -5 11 9 9 6 21
-13 48 -20 30 -22 37 -9 39 19 4 11 42 -11 55 -19 11 -18 41 1 57 13 10 19 9
38 -6 41 -34 87 -88 87 -101 0 -8 13 -13 38 -13 26 0 42 -6 52 -20 14 -19 41
-28 39 -12 -3 20 4 20 38 1 21 -12 39 -17 41 -11 1 5 13 7 26 5 42 -8 37 14
-15 69 -73 76 -151 178 -136 178 21 0 74 -41 97 -74 50 -70 80 -97 101 -91 13
4 19 2 19 -9 0 -9 5 -16 10 -16 6 0 10 4 10 9 0 5 8 7 19 4 31 -8 35 44 5 74
-32 32 -33 67 -1 58 12 -4 27 -12 32 -19 6 -6 22 -17 38 -23 16 -8 27 -20 27
-33 0 -11 5 -20 10 -20 6 0 10 5 10 11 0 20 -21 49 -35 49 -13 0 -35 28 -35
44 0 17 42 3 51 -18 7 -14 26 -28 48 -35 20 -7 42 -15 49 -17 6 -3 12 -1 12 5
0 7 -11 16 -25 21 -14 5 -28 16 -31 25 -3 8 -10 13 -14 10 -9 -6 -24 13 -25
31 0 14 -43 64 -79 92 -21 16 -32 19 -42 12 -8 -8 -14 -8 -19 0 -4 6 -13 9
-20 6 -7 -2 -16 2 -19 10 -3 8 1 14 9 14 41 0 -16 64 -84 95 -23 10 -41 23
-41 28 0 6 -9 2 -19 -7 -19 -17 -18 -18 4 -42 12 -13 27 -24 34 -24 6 0 11 -7
11 -15 0 -7 6 -18 13 -22 7 -4 18 -20 24 -34 9 -22 16 -26 40 -22 23 5 26 3
16 -8 -21 -22 -15 -36 25 -59 36 -22 36 -23 15 -33 -28 -12 -53 -3 -53 20 0
10 -26 41 -58 68 -31 28 -68 63 -82 79 -65 74 -120 120 -178 148 -48 23 -66
28 -76 19 -10 -8 -16 -9 -21 -1 -3 6 -11 8 -16 5 -5 -4 -15 -3 -21 2 -18 11
-80 33 -95 33 -7 0 -13 -3 -13 -7 0 -10 58 -43 75 -43 28 0 83 -41 89 -66 6
-22 11 -25 31 -20 18 5 23 3 19 -8 -5 -12 28 -30 50 -27 4 1 17 -9 27 -21 54
-64 65 -75 83 -81 11 -5 16 -13 12 -23 -4 -11 1 -18 14 -21 16 -4 18 -8 9 -19
-9 -11 -16 -11 -33 -2 -11 7 -25 11 -30 10 -11 -4 -101 91 -124 131 -9 16 -43
42 -74 59 -32 17 -58 35 -58 39 0 5 -5 9 -11 9 -13 0 -169 122 -169 133 0 4
-7 7 -15 7 -12 0 -124 46 -230 94 -16 8 -64 26 -105 42 -41 15 -79 30 -85 34
-31 23 -193 61 -282 65 -168 9 -203 15 -196 31 3 8 1 14 -5 14 -6 0 -12 -6
-14 -12 -5 -15 -176 23 -243 53 -45 21 -71 24 -80 9z"/>
<path d="M7120 5595 c-10 -12 -22 -15 -43 -11 -22 4 -39 -1 -72 -24 -24 -17
-49 -30 -55 -30 -17 0 -207 -105 -290 -160 -14 -9 -50 -26 -80 -39 -30 -12
-104 -44 -165 -70 -60 -27 -131 -53 -156 -59 -47 -11 -116 -66 -98 -78 5 -3
13 -3 18 1 5 3 12 1 16 -4 3 -6 -8 -20 -25 -32 -33 -25 -38 -39 -14 -39 11 0
14 -5 10 -16 -3 -9 -6 -18 -6 -20 0 -2 -7 -4 -15 -4 -8 0 -15 5 -15 10 0 6 -5
10 -12 10 -18 0 -78 -50 -78 -66 0 -7 -5 -14 -11 -14 -7 0 -9 11 -6 29 6 30
-12 58 -28 43 -5 -4 -5 -2 -2 4 9 15 -16 25 -34 13 -11 -6 -11 -11 -1 -21 18
-18 15 -26 -10 -30 -44 -6 -75 -118 -32 -118 18 0 14 -21 -7 -37 -22 -16 -13
-63 12 -63 28 0 31 -17 4 -24 -20 -5 -24 -11 -19 -29 3 -15 -1 -28 -11 -37
-20 -16 -28 -7 -44 50 -8 25 -17 58 -22 74 -5 15 -7 32 -4 36 3 4 -2 13 -10
20 -23 19 -19 43 5 35 18 -6 20 -2 20 34 0 23 4 41 9 41 12 0 22 27 15 44 -3
8 -21 17 -40 21 -33 6 -34 7 -28 40 13 69 12 70 -33 73 -62 5 -51 32 12 32 13
0 27 5 31 12 5 8 -5 9 -37 4 -24 -4 -45 -11 -47 -16 -2 -6 -14 -10 -27 -10
-23 0 -68 -32 -113 -80 -34 -36 -82 -143 -97 -219 -40 -188 -22 -420 40 -536
51 -95 120 -197 159 -235 20 -19 34 -40 31 -48 -2 -7 -1 -11 4 -8 14 9 103
-82 95 -96 -4 -6 -3 -8 3 -5 13 8 57 -29 49 -41 -3 -5 7 -20 22 -33 l27 -24
-25 30 c-24 28 -23 27 17 -5 23 -19 40 -41 38 -47 -3 -7 -1 -12 3 -12 18 3 26
-2 16 -9 -6 -4 -3 -14 10 -26 14 -14 18 -15 14 -4 -5 11 0 16 18 16 16 0 38
-16 65 -47 23 -25 48 -45 56 -43 7 2 25 -6 40 -17 14 -12 31 -21 37 -21 7 0 8
3 1 8 -15 11 -37 64 -29 71 4 3 9 0 12 -8 3 -8 17 -26 31 -39 14 -13 36 -33
49 -45 19 -18 22 -19 22 -5 0 9 -4 27 -9 40 -18 45 -24 63 -27 89 -2 15 -19
57 -38 94 -20 36 -41 91 -48 121 -7 30 -16 54 -20 54 -5 0 -8 7 -8 15 0 32
-23 65 -46 65 -28 0 -38 18 -69 120 -17 58 -24 109 -27 194 -2 96 -6 116 -18
116 -21 0 -54 56 -39 65 5 4 8 13 6 19 -4 9 3 11 20 8 18 -3 24 -1 19 7 -4 6
-15 11 -25 11 -21 0 -47 27 -37 37 3 3 23 1 43 -5 20 -6 39 -10 41 -7 8 8 -10
45 -22 45 -8 0 -12 13 -12 35 1 21 6 35 13 35 7 0 15 12 19 28 3 15 7 32 9 37
1 6 13 -12 25 -39 19 -43 21 -56 13 -106 -7 -44 -6 -60 4 -66 17 -12 27 -112
13 -129 -8 -9 -8 -15 0 -20 7 -4 7 -12 -1 -27 -6 -11 -8 -40 -5 -67 3 -25 6
-58 6 -73 0 -28 13 -37 25 -17 4 6 13 8 21 5 16 -6 16 -5 19 47 1 21 -2 40 -8
44 -5 3 -4 9 4 13 9 6 10 12 2 22 -12 14 -20 87 -12 103 7 15 -5 106 -13 105
-24 -1 -28 1 -28 15 0 13 4 14 20 5 17 -9 20 -8 20 11 0 12 -8 28 -17 35 -17
13 -17 13 0 14 27 0 23 47 -5 53 l-23 4 23 2 c41 2 58 30 57 93 0 31 2 56 5
56 20 -2 30 4 31 20 0 9 13 27 28 39 l28 22 -14 -57 c-31 -125 -44 -376 -23
-427 7 -16 17 -41 22 -55 6 -14 17 -37 24 -51 8 -16 11 -39 8 -57 -4 -20 -1
-38 10 -53 9 -13 16 -36 16 -51 0 -23 -4 -28 -23 -28 -20 0 -24 -5 -22 -32 1
-18 7 -46 13 -61 7 -16 12 -35 12 -43 0 -8 9 -14 20 -14 11 0 20 -5 20 -11 0
-5 5 -7 10 -4 15 9 12 25 -6 25 -8 0 -12 5 -9 10 3 6 15 10 26 10 21 0 23 15
13 69 -5 24 -11 31 -22 26 -14 -5 -14 -4 0 12 9 10 18 26 19 36 6 29 23 25 32
-8 5 -16 13 -37 17 -46 5 -9 5 -21 1 -28 -13 -20 0 -69 18 -74 14 -3 19 -19
24 -62 6 -59 22 -82 43 -64 8 7 10 2 6 -16 -2 -14 0 -25 6 -25 5 0 12 14 16
31 8 43 8 45 -10 64 -17 16 -17 24 -10 195 2 44 -1 70 -10 81 -10 11 -11 24
-4 51 6 22 7 45 1 59 -4 13 -6 53 -4 90 4 50 1 68 -11 78 -8 7 -13 18 -10 26
3 7 1 16 -5 20 -19 11 -12 35 10 35 18 0 20 4 14 30 -7 32 -1 38 19 17 20 -20
26 -67 9 -67 -13 0 -14 -14 -10 -79 3 -43 10 -88 16 -99 8 -16 8 -24 -4 -36
-10 -10 -11 -16 -3 -18 6 -2 13 -13 15 -24 14 -80 19 -139 15 -161 -3 -18 -1
-24 7 -19 7 5 11 -4 11 -26 0 -18 8 -47 18 -63 11 -17 22 -47 26 -68 5 -27 14
-40 32 -47 13 -5 24 -17 24 -26 0 -14 2 -14 16 -3 13 10 17 10 24 -1 7 -11 14
-11 32 -3 25 12 24 13 -30 29 -21 6 -4 23 17 17 11 -3 21 2 24 11 5 13 -1 16
-31 17 -28 1 -31 3 -12 6 14 3 28 10 32 17 12 18 9 66 -4 66 -6 0 -4 7 5 18
10 10 17 25 17 33 0 12 -2 11 -10 -1 -5 -8 -10 -10 -10 -5 -1 6 -3 25 -4 43
-2 18 0 35 5 38 5 3 9 13 9 24 0 24 30 36 31 12 5 -80 7 -104 13 -150 10 -83
46 -209 46 -163 0 7 5 9 11 6 6 -4 8 -10 5 -13 -3 -3 0 -12 7 -20 10 -13 9
-15 -10 -10 -16 4 -23 2 -23 -8 0 -8 3 -13 8 -13 22 4 34 -3 28 -16 -4 -10 1
-15 15 -15 14 0 21 -9 26 -30 7 -37 16 -31 19 13 0 17 2 42 3 55 1 15 7 22 20
22 15 0 21 -10 26 -40 4 -22 11 -38 16 -34 5 3 9 1 9 -5 0 -5 -5 -11 -11 -13
-14 -5 0 -38 16 -38 18 0 26 25 12 39 -8 8 -8 14 0 22 7 7 12 1 17 -23 l6 -32
25 26 c20 22 25 38 25 81 0 29 -5 58 -11 64 -7 7 -6 24 2 57 6 26 9 69 6 97
-6 45 -4 51 20 66 22 15 23 18 9 28 -21 16 -21 36 1 28 12 -5 15 -2 10 10 -3
9 -2 19 4 23 6 3 6 10 1 17 -5 7 -9 39 -10 72 0 59 0 59 9 20 6 -22 14 -65 18
-96 5 -31 13 -64 19 -74 5 -10 8 -34 5 -54 -3 -22 1 -48 11 -65 11 -22 12 -34
5 -43 -11 -13 -14 -65 -6 -118 2 -16 5 -36 6 -42 2 -24 19 -13 90 56 70 67 82
86 60 93 -7 2 -4 10 7 18 16 14 17 13 11 -2 -14 -39 21 -14 113 82 53 55 100
100 104 100 5 0 5 -12 2 -26 -5 -17 -3 -23 4 -19 6 4 5 -8 -4 -29 -9 -21 -11
-38 -5 -41 5 -4 9 -14 9 -25 0 -10 6 -20 14 -23 20 -8 24 -47 9 -77 -13 -25
-18 -80 -7 -80 10 0 28 24 48 63 16 30 23 36 40 31 29 -9 44 -32 38 -60 -5
-27 12 -33 22 -8 3 8 10 13 15 10 11 -7 71 22 71 35 0 5 4 9 10 9 5 0 7 -13 3
-30 -3 -16 -3 -30 1 -30 7 0 53 38 74 62 9 9 19 15 23 12 18 -11 118 222 120
280 0 20 1 20 8 1 7 -17 9 -15 19 15 24 76 42 161 37 171 -4 5 -3 23 0 40 5
21 11 29 22 25 24 -10 -19 43 -93 114 -38 36 -77 76 -86 90 -20 28 -25 124 -8
135 16 10 11 52 -10 87 -29 48 -23 144 7 125 14 -9 9 111 -5 125 -15 15 -16
32 -2 23 6 -4 17 -22 25 -41 8 -19 18 -34 23 -34 15 0 43 48 32 55 -6 3 -10
11 -10 18 0 6 7 2 15 -9 14 -18 16 -18 29 -1 12 16 10 25 -15 78 -16 32 -29
62 -29 65 0 3 15 -6 33 -20 19 -15 39 -26 45 -26 6 0 12 -9 14 -20 2 -14 7
-17 17 -10 13 7 13 13 1 37 -7 15 -13 31 -12 36 1 4 -4 7 -11 7 -18 0 -38 45
-30 67 5 12 2 15 -9 11 -8 -4 -32 5 -54 18 -57 34 -73 41 -134 54 -56 11 -120
9 -153 -5 -11 -4 -30 -2 -45 5 -17 8 -90 14 -203 16 -97 2 -208 7 -246 10 -58
5 -71 4 -83 -11z"/>
<path d="M8619 5402 c9 -17 8 -23 -6 -31 -17 -10 -17 -10 0 -11 9 0 17 -5 17
-10 0 -19 -32 -60 -46 -60 -19 0 -18 -25 2 -44 9 -10 13 -24 9 -36 -8 -26 -23
-26 -27 0 -3 18 -4 18 -15 -5 -6 -14 -7 -22 -1 -19 5 3 17 -1 28 -11 17 -15
19 -14 39 13 12 17 21 37 21 45 0 9 5 19 12 23 8 5 9 0 5 -17 -4 -13 -10 -42
-14 -64 -3 -22 -13 -45 -21 -51 -10 -7 -13 -20 -9 -40 4 -23 0 -35 -19 -53
-16 -15 -21 -27 -14 -31 6 -4 -6 -25 -32 -55 -56 -64 -34 -54 40 17 33 32 71
62 86 68 14 5 26 16 26 24 0 8 4 16 8 18 11 4 92 157 92 173 0 11 -146 150
-178 169 -11 7 -12 4 -3 -12z"/>
<path d="M8002 5183 c-67 -65 -74 -85 -46 -138 29 -54 33 -82 19 -130 -8 -25
-11 -53 -8 -63 7 -18 112 -134 151 -166 30 -24 38 -16 12 14 -11 13 -18 30
-16 37 3 7 2 13 -3 13 -5 0 -11 37 -15 83 -4 45 -10 91 -13 102 -5 17 -4 18
11 6 9 -7 16 -25 16 -39 0 -14 3 -23 6 -19 10 10 -7 87 -19 84 -13 -2 -36 60
-44 122 -4 32 -3 42 5 37 7 -4 12 -16 12 -26 0 -17 17 -37 24 -29 4 5 -9 90
-21 138 l-8 34 -63 -60z"/>
<path d="M8668 4770 c-15 -4 -29 -6 -32 -4 -4 2 -2 -1 4 -8 6 -8 6 -16 -1 -25
-7 -7 -8 -13 -4 -13 3 0 -16 -26 -44 -57 -51 -57 -60 -73 -41 -73 6 0 10 4 10
10 0 5 7 7 15 4 9 -4 30 8 52 30 20 19 39 33 42 30 3 -3 1 -8 -5 -12 -18 -12
-56 -72 -52 -83 7 -20 85 59 90 91 4 27 2 30 -16 24 l-21 -6 21 23 c12 13 24
36 28 52 7 29 1 31 -46 17z"/>
<path d="M7458 4188 c-29 -28 -52 -55 -50 -60 1 -5 -2 -7 -7 -4 -5 3 -15 -2
-22 -11 -10 -11 -10 -14 -2 -9 9 5 11 2 7 -8 -3 -9 -10 -14 -14 -11 -11 7 -31
-20 -22 -30 4 -5 1 -5 -6 -1 -16 10 -136 -109 -126 -125 4 -7 3 -9 -4 -5 -6 3
-20 -8 -32 -26 -19 -29 -19 -30 -2 -10 l21 22 14 -62 c9 -35 16 -55 16 -46 1
20 43 68 60 68 16 0 36 53 22 58 -7 2 -5 9 4 18 12 12 13 20 4 36 -10 18 -9
20 5 15 8 -3 18 -2 21 4 4 5 1 8 -6 7 -6 -2 -13 8 -14 21 l-2 23 18 -23 c10
-13 17 -30 14 -36 -2 -7 2 -13 9 -13 8 0 20 -9 27 -21 14 -20 15 -21 52 -3 29
14 37 23 37 45 0 14 6 45 14 67 8 22 12 43 9 46 -3 3 -2 13 3 23 7 17 14 103
7 103 -2 0 -27 -23 -55 -52z"/>
<path d="M3920 3981 c-8 -6 -28 -11 -43 -11 -16 0 -56 -11 -90 -24 -34 -13
-70 -26 -80 -30 -23 -7 -9 -37 29 -63 15 -10 47 -36 73 -59 97 -86 298 -203
433 -254 170 -63 336 -90 472 -75 67 7 67 7 49 27 -18 20 -17 20 22 13 30 -5
36 -4 25 4 -8 6 -25 11 -37 11 -16 0 -25 8 -29 25 -4 18 -13 25 -30 25 -13 0
-33 5 -44 10 -11 6 -29 15 -40 20 -11 6 -26 10 -34 10 -7 0 -19 6 -25 14 -10
11 -4 15 29 18 22 2 40 1 40 -3 0 -12 33 -20 43 -10 6 6 -8 18 -39 32 -27 12
-53 27 -59 33 -5 7 -41 23 -80 35 -92 31 -244 103 -227 108 7 3 27 -4 45 -15
56 -32 322 -108 290 -82 -49 39 -103 72 -182 107 -107 48 -159 62 -170 44 -12
-19 -41 -1 -41 26 0 18 -9 28 -35 39 -20 8 -40 12 -45 9 -5 -3 -19 0 -30 7
-17 11 -22 11 -29 -1 -7 -11 -9 -11 -13 0 -5 16 -127 24 -148 10z"/>
<path d="M8190 3949 c-19 -4 -52 -10 -72 -13 -54 -10 -49 -30 5 -23 l42 5 -32
-16 c-39 -19 -42 -38 -8 -54 20 -9 36 -8 79 5 29 9 65 17 80 17 26 0 116 19
116 25 0 11 -28 54 -33 49 -11 -11 -55 -11 -51 0 5 13 -70 16 -126 5z"/>
<path d="M3681 3873 c2 -6 24 -33 49 -60 25 -26 101 -108 169 -181 131 -141
234 -232 367 -325 130 -90 205 -129 235 -123 19 3 29 0 33 -10 5 -12 1 -14
-17 -9 -17 5 -19 4 -7 -4 8 -6 23 -8 33 -5 10 3 17 0 17 -8 0 -8 22 -25 49
-39 28 -13 52 -32 54 -41 3 -10 1 -18 -3 -18 -5 0 -12 -10 -15 -22 -4 -13 -21
-38 -39 -57 -21 -23 -27 -35 -18 -38 16 -6 -3 -33 -24 -33 -8 0 -14 -4 -14 -9
0 -22 -145 -151 -170 -151 -13 0 -13 -17 0 -25 5 -3 61 -15 122 -26 62 -11
140 -25 173 -31 254 -45 612 45 876 222 52 35 114 79 139 99 25 19 47 37 49
38 2 2 2 6 -2 9 -3 3 -34 -2 -69 -11 -76 -21 -331 -64 -373 -63 -29 0 -28 1 8
10 44 12 49 28 7 28 -16 0 -30 3 -30 8 0 4 69 7 154 7 148 0 187 6 157 25 -10
6 -3 11 25 19 21 6 49 11 62 11 36 0 94 28 86 41 -4 8 -3 9 4 5 7 -4 12 -3 12
3 0 5 21 13 46 17 35 5 48 12 56 30 7 16 25 28 50 35 22 5 47 18 58 29 18 18
18 19 -1 39 l-20 21 45 0 c36 0 46 4 51 20 8 24 -1 40 -21 40 -8 0 -14 5 -14
10 0 6 9 10 20 10 36 0 40 84 5 95 -18 6 -18 7 7 16 23 9 26 14 18 29 -12 23
-61 46 -113 53 -21 3 -46 15 -55 26 -16 20 -29 21 -207 23 -104 1 -197 -2
-205 -7 -8 -5 -32 -12 -55 -16 -22 -4 -85 -16 -140 -27 -55 -11 -120 -23 -145
-27 -25 -3 -83 -17 -130 -30 -82 -23 -257 -52 -350 -57 -32 -2 -45 -7 -46 -18
-3 -50 -3 -50 -44 -48 -45 1 -62 -8 -40 -22 13 -8 12 -10 -2 -10 -9 0 -23 6
-31 14 -8 8 -34 21 -58 28 -29 8 -44 19 -45 31 -2 20 -1 20 50 6 27 -7 46 -8
60 -1 12 6 28 13 36 15 8 3 -3 6 -24 6 -22 1 -64 8 -95 17 -142 42 -217 67
-228 76 -7 5 -17 7 -22 3 -10 -5 -168 82 -221 123 -14 11 -39 26 -57 35 -17 9
-46 31 -65 48 -18 17 -49 42 -68 57 -19 14 -50 40 -69 56 -18 17 -32 26 -30
19z m1154 -867 c22 -8 52 -15 66 -16 15 0 32 -6 38 -14 9 -11 2 -16 -36 -26
-26 -6 -51 -16 -55 -23 -7 -12 -28 -18 -78 -20 -19 -2 -44 -8 -56 -14 -11 -7
-26 -8 -33 -3 -10 6 -8 12 12 24 13 9 29 16 33 14 15 -4 55 22 49 33 -4 5 3 9
14 9 11 0 23 5 27 12 5 8 2 9 -10 5 -10 -4 -34 -7 -54 -7 -28 0 -33 -3 -22
-10 8 -5 10 -10 4 -10 -19 0 -24 13 -11 28 10 12 9 16 -2 20 -22 7 5 18 41 16
18 -1 51 -9 73 -18z"/>
<path d="M8324 3855 c-10 -8 -26 -15 -35 -15 -9 0 -22 -7 -29 -15 -9 -11 -16
-12 -26 -4 -19 16 -66 -18 -62 -45 2 -16 11 -22 36 -24 18 -2 32 1 32 7 0 6
20 11 45 11 29 0 48 5 51 13 3 8 16 12 33 9 26 -4 29 -1 33 32 2 20 2 39 -1
41 -10 10 -58 4 -77 -10z"/>
<path d="M8750 3831 c0 -4 17 -15 38 -24 l37 -16 -55 3 c-39 2 -58 -2 -66 -12
-9 -12 -17 -13 -40 -5 -34 12 -54 7 -54 -12 0 -8 -10 -23 -22 -34 l-21 -20 36
4 c20 3 46 1 58 -3 20 -8 19 -10 -15 -26 -37 -18 -45 -31 -23 -40 16 -6 -20
-36 -45 -36 -15 0 -17 -5 -12 -25 6 -25 -9 -35 -21 -15 -4 6 -11 8 -16 5 -5
-4 -9 -1 -9 4 0 16 -27 13 -33 -3 -3 -7 -1 -18 5 -24 10 -10 -37 -92 -53 -92
-5 0 -9 -7 -9 -15 0 -10 10 -15 32 -15 24 0 41 10 74 45 24 24 39 47 34 50 -5
3 1 16 13 28 24 24 71 52 62 37 -4 -6 0 -10 8 -10 16 0 67 44 67 58 0 6 18 17
41 26 32 13 40 21 36 35 -3 15 3 21 27 27 43 10 49 11 66 13 10 1 6 7 -10 16
-14 8 -19 14 -11 15 19 0 -16 40 -36 40 -7 0 -13 7 -13 15 0 10 -11 15 -35 15
-19 0 -35 -4 -35 -9z"/>
<path d="M8852 3613 c-5 -10 -17 -43 -27 -73 -10 -30 -39 -98 -64 -151 l-47
-96 34 24 c19 13 43 23 54 23 15 0 17 5 12 25 -4 18 1 33 18 54 39 46 102 175
95 194 -9 23 -63 23 -75 0z"/>
<path d="M6459 3443 c-13 -15 -12 -16 6 -10 14 5 11 0 -10 -18 -25 -21 -26
-25 -9 -20 25 7 41 -20 24 -40 -7 -9 -7 -15 -1 -19 5 -4 12 -2 16 4 3 5 10 10
15 10 6 0 2 -9 -7 -20 -17 -20 -17 -19 -43 3 l-25 22 24 -27 c14 -16 30 -28
37 -28 6 0 18 -7 25 -16 12 -15 15 -14 31 6 10 12 15 27 11 33 -4 6 -1 7 6 2
8 -5 33 12 69 46 l57 54 -60 -65 c-33 -35 -63 -66 -67 -68 -4 -2 -4 -11 -1
-19 5 -12 2 -15 -9 -11 -8 4 -15 1 -15 -7 0 -8 7 -11 16 -7 14 5 13 2 -2 -21
-15 -23 -16 -28 -3 -33 8 -3 12 -12 9 -20 -3 -8 -1 -14 4 -14 5 0 9 -30 10
-67 1 -47 -1 -62 -7 -48 -8 18 -9 18 -9 2 -1 -10 -5 -15 -11 -12 -5 3 -10 1
-10 -4 0 -6 6 -11 14 -11 25 0 31 -42 10 -59 -13 -11 -18 -26 -16 -45 2 -18 0
-26 -7 -21 -6 3 -12 18 -12 33 -1 18 -4 11 -9 -18 -16 -92 -20 -104 -31 -114
-9 -8 -10 1 -5 40 4 36 2 62 -9 89 -16 37 -12 62 5 35 13 -20 15 64 6 180 -2
19 1 41 7 48 14 18 -8 16 -23 -3 -6 -8 -8 -20 -4 -27 4 -7 -2 -4 -14 6 -23 20
-31 42 -10 30 7 -5 8 -3 3 6 -6 10 -4 12 9 7 11 -4 15 -3 11 4 -4 6 -13 8 -21
5 -16 -6 -19 10 -4 19 6 4 17 2 25 -5 9 -7 15 -8 20 0 3 5 11 10 17 10 6 0 5
-7 -3 -17 -12 -14 -12 -15 0 -9 8 5 16 4 21 -3 4 -7 6 4 6 23 -1 25 -4 32 -12
25 -16 -13 -56 -20 -49 -8 4 5 15 9 25 9 10 0 22 5 25 10 4 6 3 9 -2 8 -14 -3
-57 13 -78 31 -20 16 -20 16 -1 -6 11 -13 26 -23 34 -23 9 0 6 -7 -9 -19 -19
-15 -27 -17 -39 -8 -12 9 -13 9 -3 -3 8 -9 9 -19 3 -30 -7 -13 -4 -25 11 -44
19 -24 18 -31 -5 -27 -5 1 -4 -5 4 -13 14 -17 25 -22 15 -7 -3 6 3 9 13 8 10
0 19 -7 19 -14 0 -6 -4 -10 -9 -7 -10 6 -16 -10 -21 -55 -2 -19 -9 -37 -16
-39 -9 -3 -11 0 -6 7 4 7 -1 18 -11 26 -18 12 -14 28 7 31 5 1 11 2 14 3 3 0
1 10 -5 22 -11 20 -12 20 -31 3 -17 -16 -22 -16 -29 -4 -6 10 -8 -1 -6 -31 2
-33 -1 -46 -11 -46 -7 0 -13 4 -13 9 0 4 5 8 11 8 5 0 7 5 3 11 -4 7 -14 0
-25 -18 -10 -15 -19 -26 -20 -23 0 3 -2 13 -4 23 -2 11 -1 16 2 14 3 -3 14 2
24 12 14 13 18 29 16 61 -2 42 0 44 25 45 14 0 30 3 33 7 4 4 -4 5 -19 2 -22
-4 -26 -1 -26 20 0 14 4 36 10 50 10 28 -2 78 -14 58 -12 -20 -35 -14 -29 8 5
18 -1 16 -45 -12 -28 -18 -82 -53 -121 -77 -39 -24 -71 -49 -71 -57 0 -8 -7
-14 -15 -14 -8 0 -15 -4 -15 -10 0 -5 -6 -10 -12 -10 -17 -1 -67 -39 -51 -40
27 0 195 60 224 81 23 16 33 19 42 10 6 -6 8 -11 4 -11 -3 0 0 -17 7 -38 8
-23 11 -45 6 -52 -5 -8 -5 -21 0 -31 5 -9 6 -19 3 -23 -3 -3 -1 -6 5 -6 7 0
12 -7 12 -15 0 -8 -5 -15 -11 -15 -5 0 -7 -5 -4 -10 4 -6 11 -7 17 -4 7 5 8 2
3 -6 -11 -18 -6 -146 10 -243 20 -126 78 -284 114 -317 8 -7 51 -96 51 -105 0
-4 13 -24 29 -44 15 -20 31 -46 35 -58 4 -13 13 -23 20 -23 22 0 110 32 127
46 14 13 39 19 39 10 0 -2 16 -161 35 -353 19 -192 37 -387 40 -434 3 -46 10
-118 15 -159 5 -41 17 -151 25 -245 8 -93 22 -237 30 -320 8 -82 22 -247 31
-365 9 -118 19 -249 23 -290 l6 -75 34 -3 c32 -3 43 5 150 110 l116 113 -110
-112 -110 -113 119 0 119 0 -7 83 c-4 45 -9 105 -11 132 -3 28 -9 118 -15 200
-6 83 -13 173 -15 200 -5 60 -69 729 -90 940 -8 83 -26 263 -39 402 -63 646
-75 741 -86 723 -5 -8 -8 4 -7 27 1 23 4 39 6 37 5 -4 58 171 65 211 2 11 8
45 15 76 16 76 17 160 3 184 -8 14 -12 16 -12 5 0 -8 -3 -26 -5 -40 -5 -22 -4
-22 4 -5 l10 20 -1 -20 c0 -11 -4 -31 -8 -45 l-8 -25 -2 25 c-1 14 -4 19 -7
13 -8 -22 -21 -14 -28 17 -6 27 -9 29 -23 18 -13 -11 -15 -10 -9 5 3 9 2 17
-3 17 -5 0 -10 -10 -12 -22 -2 -16 -9 -4 -23 39 -13 42 -25 62 -34 60 -10 -1
-18 14 -26 43 -7 30 -17 46 -29 48 -15 3 -16 6 -5 13 10 6 10 9 2 9 -7 0 -13
6 -13 13 0 11 -27 16 -107 20 -97 6 -190 19 -234 32 -9 3 -22 -2 -30 -12z"/>
<path d="M7295 3379 c-159 -8 -195 -15 -195 -39 0 -23 26 -44 41 -34 7 4 9 3
6 -3 -4 -6 8 -22 25 -37 36 -29 206 -115 253 -127 17 -4 55 -16 86 -28 75 -27
196 -40 359 -39 126 1 130 2 60 9 -41 5 -82 6 -91 3 -22 -6 -32 22 -11 32 9 4
51 10 92 13 l75 7 -40 18 c-22 10 -48 22 -57 27 -10 5 -28 9 -40 10 -14 1 -8
4 16 10 23 5 43 6 50 0 9 -7 27 -8 101 -1 14 1 -84 50 -100 50 -18 0 -99 41
-103 52 -2 4 -8 8 -13 8 -5 0 -18 9 -30 21 -14 14 -28 19 -44 15 -13 -3 -52 0
-87 8 -35 7 -83 14 -108 15 -25 1 -61 5 -80 9 -19 4 -93 4 -165 1z"/>
</g>
</svg>
